<svg xmlns="http://www.w3.org/2000/svg" viewBox="0 0 16 16"><path d="M5.5 12.502v.5c0 1.381 1.119 2.5 2.5 2.5s2.5-1.119 2.5-2.5l.003-.495M3.056 7.432c-.54 2.214-1.556 3.07-1.556 3.07v2h13v-2s-1.884-1.587-1.884-6.024c0-.901-.909-3.976-4.616-3.976-.279 0-.543.017-.791.05" fill="none" stroke="#000" stroke-width="1.3" stroke-miterlimit="10"/><path d="M3.5 6.152c-1.737 0-3.15-1.413-3.15-3.15S1.763-.148 3.5-.148s3.15 1.413 3.15 3.15-1.413 3.15-3.15 3.15z"/><path d="M3.5-.148c1.737 0 3.15 1.413 3.15 3.15s-1.413 3.15-3.15 3.15S.35 4.739.35 3.002 1.763-.148 3.5-.148" fill="#587eba"/></svg>